<svg width="964" height="945" xmlns="http://www.w3.org/2000/svg" xmlns:xlink="http://www.w3.org/1999/xlink" xml:space="preserve" overflow="hidden"><defs><clipPath id="clip0"><rect x="1718" y="765" width="964" height="945"/></clipPath></defs><g clip-path="url(#clip0)" transform="translate(-1718 -765)"><path d="M1891 1314.5C1891 1096.07 2068.07 919 2286.5 919 2504.93 919 2682 1096.07 2682 1314.5 2682 1532.93 2504.93 1710 2286.5 1710 2068.07 1710 1891 1532.93 1891 1314.5Z" fill="#222A35" fill-rule="evenodd"/><path d="M1718 1102.5C1718 916.104 1868.88 765 2055 765 2241.12 765 2392 916.104 2392 1102.5 2392 1288.9 2241.12 1440 2055 1440 1868.88 1440 1718 1288.9 1718 1102.5Z" fill="#333F50" fill-rule="evenodd"/><path d="M1977 1317.5C1977 1146.57 2115.79 1008 2287 1008 2458.21 1008 2597 1146.57 2597 1317.5 2597 1488.43 2458.21 1627 2287 1627 2115.79 1627 1977 1488.43 1977 1317.5ZM2081.52 1317.5C2081.52 1430.71 2173.52 1522.48 2287 1522.48 2400.48 1522.48 2492.48 1430.71 2492.48 1317.5 2492.48 1204.29 2400.48 1112.52 2287 1112.52 2173.52 1112.52 2081.52 1204.29 2081.52 1317.5Z" fill="#FFC000" fill-rule="evenodd"/><path d="M2273.13 1359.77C2166.29 1450.62 2014.46 1465.76 1891.83 1397.8L2055 1102.5Z" fill="#333F50" fill-rule="evenodd"/><path d="M1843 1102C1843 984.916 1937.92 890 2055 890 2172.08 890 2267 984.916 2267 1102 2267 1219.08 2172.08 1314 2055 1314 1937.92 1314 1843 1219.08 1843 1102Z" fill="#FFD966" fill-rule="evenodd"/><path d="M1995 978C1995 945.415 2021.64 919 2054.5 919 2087.36 919 2114 945.415 2114 978 2114 1010.58 2087.36 1037 2054.5 1037 2021.64 1037 1995 1010.58 1995 978Z" fill="#333F50" fill-rule="evenodd"/><path d="M1995 1222.5C1995 1189.64 2021.64 1163 2054.5 1163 2087.36 1163 2114 1189.64 2114 1222.5 2114 1255.36 2087.36 1282 2054.5 1282 2021.64 1282 1995 1255.36 1995 1222.5Z" fill="#8497B0" fill-rule="evenodd"/><path d="M2176.5 1041C2209.36 1041 2236 1067.42 2236 1100 2236 1132.58 2209.36 1159 2176.5 1159 2143.64 1159 2117 1132.58 2117 1100 2117 1067.42 2143.64 1041 2176.5 1041Z" fill="#44546A" fill-rule="evenodd"/><path d="M1932.5 1041C1965.36 1041 1992 1067.42 1992 1100 1992 1132.58 1965.36 1159 1932.5 1159 1899.64 1159 1873 1132.58 1873 1100 1873 1067.42 1899.64 1041 1932.5 1041Z" fill="#ADB9CA" fill-rule="evenodd"/></g></svg>